<svg id="Capa_1" data-name="Capa 1" xmlns="http://www.w3.org/2000/svg" viewBox="0 0 75.49 80.07"><defs><style>.cls-1,.cls-3{fill:#fff;}.cls-2{fill:#e83b68;}.cls-3{font-size:7.35px;font-family:ArialMT, Arial;}</style></defs><path class="cls-1" d="M38.21,52.61a2.71,2.71,0,0,0,2.71-2.71H35.5A2.71,2.71,0,0,0,38.21,52.61Zm9.12-6.34c-.82-.88-2.35-2.2-2.35-6.54a6.68,6.68,0,0,0-5.42-6.57v-.88a1.36,1.36,0,1,0-2.71,0v.88a6.68,6.68,0,0,0-5.41,6.57c0,4.34-1.54,5.66-2.35,6.54a1.31,1.31,0,0,0-.37.92,1.36,1.36,0,0,0,1.36,1.35H46.34a1.36,1.36,0,0,0,1.36-1.35A1.31,1.31,0,0,0,47.33,46.27Z"/><circle class="cls-2" cx="46.78" cy="34.41" r="7.56"/><text class="cls-3" transform="translate(45.07 36.57) scale(1.13 1)">2</text></svg>