<svg id="Capa_1" data-name="Capa 1" xmlns="http://www.w3.org/2000/svg" viewBox="0 0 279.39 117.3"><defs><style>.cls-1{fill:#101111;}.cls-2{fill:none;stroke:#101111;stroke-width:2px;}.cls-2,.cls-4,.cls-5{stroke-miterlimit:10;}.cls-3{fill:#29b3a2;}.cls-4,.cls-5{fill:#fff;stroke:#fff;}.cls-4{stroke-width:0.25px;}.cls-5{font-size:20.14px;stroke-width:0.75px;font-family:ArialMT, Arial;letter-spacing:0.2em;}.cls-6{letter-spacing:0.21em;}.cls-7{letter-spacing:0.21em;}.cls-8{letter-spacing:0.2em;}.cls-9{letter-spacing:0.2em;}</style></defs><circle class="cls-1" cx="-57.26" cy="61.62" r="41.99"/><circle class="cls-2" cx="-57.26" cy="61.62" r="41.99"/><path class="cls-3" d="M229.2,98.11,49.74,97.46A40.58,40.58,0,0,1,9.16,56.88h0c0-22.41,17.1-39,39.51-39H230.23a40.58,40.58,0,0,1,40.58,40.58h0C270.81,80.87,251.62,98.11,229.2,98.11Z"/><path class="cls-4" d="M64.13,70.59S68.5,61.72,85.62,62v6L98.78,56.2,85.89,44.47l-.27,6.89S67.07,54,64.13,70.59Z"/><text class="cls-5" transform="translate(106.36 63.07) scale(0.87 1)">S<tspan class="cls-6" x="17.4" y="0">H</tspan><tspan class="cls-7" x="36.08" y="0">A</tspan><tspan class="cls-8" x="53.68" y="0">R</tspan><tspan class="cls-9" x="72.23" y="0">E</tspan></text></svg>