<?xml version="1.0" encoding="utf-8"?>
<!-- Generator: Adobe Illustrator 25.2.1, SVG Export Plug-In . SVG Version: 6.00 Build 0)  -->
<svg version="1.1" id="Capa_1" xmlns="http://www.w3.org/2000/svg" xmlns:xlink="http://www.w3.org/1999/xlink" x="0px" y="0px"
	 viewBox="0 0 50 42" style="enable-background:new 0 0 50 42;" xml:space="preserve">
<style type="text/css">
	.st0{fill:#FFFFFF;}
</style>
<g>
	<g>
		<path class="st0" d="M5.6,35.8v-1.3c3.5-0.3,3.9-0.5,3.9-3.8v-9.9c0-3-0.2-3.2-3.5-3.6V16c2.9-0.4,5.5-1.1,7.9-1.9c0,2,0,4,0,6
			v10.6c0,3.3,0.4,3.5,4,3.8v1.3H5.6z M11.4,9.3c-1.6,0-3-1.2-3-2.5c0-1.5,1.4-2.6,3-2.6c1.6,0,2.8,1.1,2.8,2.6
			C14.3,8.1,13,9.3,11.4,9.3z"/>
		<path class="st0" d="M36.8,35.8v-1.3c3.2-0.3,3.6-0.6,3.6-3.9v-7.9c0-3.4-1.4-5.6-5.1-5.6c-2.3,0-4.5,1.2-6.2,2.5v11.2
			c0,3.3,0.3,3.4,3.6,3.7v1.3H20.7v-1.3c3.7-0.3,4-0.5,4-3.7v-9.9c0-3.1-0.4-3.3-3.4-3.7v-1.2c2.7-0.4,5.5-1,7.8-1.9
			c0,1.1,0,2.6,0,3.8c1.1-0.7,2.3-1.4,3.8-2.2c1.6-0.9,3-1.4,4.6-1.4c4.5,0,7.3,2.8,7.3,7.5v9.1c0,3.3,0.3,3.4,3.6,3.7v1.3H36.8z"/>
	</g>
</g>
</svg>
