<?xml version="1.0" encoding="utf-8"?>
<!-- Generator: Adobe Illustrator 25.2.1, SVG Export Plug-In . SVG Version: 6.00 Build 0)  -->
<svg version="1.1" id="Capa_1" xmlns="http://www.w3.org/2000/svg" xmlns:xlink="http://www.w3.org/1999/xlink" x="0px" y="0px"
	 viewBox="0 0 61 60" style="enable-background:new 0 0 61 60;" xml:space="preserve">
<style type="text/css">
	.st0{fill:#E73B68;stroke:#E73B68;stroke-miterlimit:10;}
	.st1{fill:#FFFFFF;stroke:#FFFFFF;stroke-width:0.75;stroke-miterlimit:10;}
</style>
<g>
	<circle class="st0" cx="30.5" cy="29.9" r="24"/>
	<g>
		<path class="st1" d="M37.7,30.9H23.2c-0.4,0-0.7-0.3-0.7-0.7V30c0-0.4,0.3-0.7,0.7-0.7h14.6c0.4,0,0.7,0.3,0.7,0.7v0.2
			C38.5,30.6,38.1,30.9,37.7,30.9z"/>
		<path class="st1" d="M30.5,38.1L30.5,38.1c-0.4,0-0.8-0.3-0.8-0.8V22.8c0-0.4,0.3-0.8,0.8-0.8l0,0c0.4,0,0.8,0.3,0.8,0.8v14.5
			C31.2,37.7,30.9,38.1,30.5,38.1z"/>
	</g>
</g>
</svg>
